<?xml version="1.0" encoding="UTF-8" standalone="no"?>
<!-- Created with Inkscape (http://www.inkscape.org/) -->

<svg
   version="1.1"
   id="svg9"
   width="265"
   height="320"
   viewBox="0 0 265 320"
   sodipodi:docname="ifsc.svg"
   inkscape:version="1.2.2 (732a01da63, 2022-12-09)"
   xmlns:inkscape="http://www.inkscape.org/namespaces/inkscape"
   xmlns:sodipodi="http://sodipodi.sourceforge.net/DTD/sodipodi-0.dtd"
   xmlns="http://www.w3.org/2000/svg"
   xmlns:svg="http://www.w3.org/2000/svg">
  <defs
     id="defs13">
    <clipPath
       clipPathUnits="userSpaceOnUse"
       id="clipPath25">
      <path
         d="M 0,266.667 H 198.334 V 0 H 0 Z"
         id="path23" />
    </clipPath>
  </defs>
  <sodipodi:namedview
     id="namedview11"
     pagecolor="#ffffff"
     bordercolor="#000000"
     borderopacity="0.25"
     inkscape:showpageshadow="2"
     inkscape:pageopacity="0.0"
     inkscape:pagecheckerboard="0"
     inkscape:deskcolor="#d1d1d1"
     showgrid="false"
     inkscape:zoom="2.1796848"
     inkscape:cx="132.35859"
     inkscape:cy="179.15435"
     inkscape:window-width="1920"
     inkscape:window-height="991"
     inkscape:window-x="-9"
     inkscape:window-y="-9"
     inkscape:window-maximized="1"
     inkscape:current-layer="g19">
    <inkscape:page
       x="0"
       y="0"
       id="page15"
       width="265"
       height="320" />
  </sodipodi:namedview>
  <g
     id="g17"
     inkscape:groupmode="layer"
     inkscape:label="Page 1"
     transform="matrix(1.3333333,0,0,-1.3333333,0,355.556)">
    <g
       id="g19">
      <g
         id="g21"
         clip-path="url(#clipPath25)"
         transform="matrix(1.4226172,0,0,1.4158666,-43.169317,-81.851431)">
        <g
           id="g83"
           transform="translate(40.231,80.8545)">
          <path
             d="m 0,0 c 0,-1.285 -0.467,-2.287 -1.4,-3.006 -0.934,-0.719 -2.201,-1.079 -3.802,-1.079 -1.734,0 -3.067,0.224 -4.001,0.67 v 1.638 c 0.601,-0.254 1.254,-0.453 1.961,-0.6 0.707,-0.146 1.407,-0.22 2.1,-0.22 1.134,0 1.988,0.215 2.561,0.645 0.574,0.429 0.86,1.026 0.86,1.792 0,0.506 -0.101,0.92 -0.305,1.243 -0.203,0.323 -0.543,0.621 -1.02,0.894 -0.477,0.273 -1.202,0.583 -2.176,0.928 -1.36,0.487 -2.332,1.062 -2.915,1.728 -0.584,0.666 -0.875,1.534 -0.875,2.606 0,1.125 0.423,2.021 1.27,2.686 0.846,0.666 1.967,0.999 3.361,0.999 1.453,0 2.791,-0.267 4.011,-0.799 L -0.9,8.647 c -1.207,0.505 -2.381,0.759 -3.521,0.759 -0.9,0 -1.604,-0.193 -2.111,-0.579 -0.507,-0.387 -0.76,-0.923 -0.76,-1.608 0,-0.506 0.093,-0.92 0.28,-1.243 C -6.825,5.653 -6.51,5.356 -6.067,5.087 -5.623,4.817 -4.945,4.52 -4.031,4.193 -2.498,3.647 -1.442,3.062 -0.865,2.437 -0.289,1.811 0,0.998 0,0"
             style="fill:#000000;fill-opacity:1;fill-rule:nonzero;stroke:none"
             id="path85" />
        </g>
        <g
           id="g87"
           transform="translate(40.231,80.8545)">
          <path
             d="m 0,0 c 0,-1.285 -0.467,-2.287 -1.4,-3.006 -0.934,-0.719 -2.201,-1.079 -3.802,-1.079 -1.734,0 -3.067,0.224 -4.001,0.67 v 1.638 c 0.601,-0.254 1.254,-0.453 1.961,-0.6 0.707,-0.146 1.407,-0.22 2.1,-0.22 1.134,0 1.988,0.215 2.561,0.645 0.574,0.429 0.86,1.026 0.86,1.792 0,0.506 -0.101,0.92 -0.305,1.243 -0.203,0.323 -0.543,0.621 -1.02,0.894 -0.477,0.273 -1.202,0.583 -2.176,0.928 -1.36,0.487 -2.332,1.062 -2.915,1.728 -0.584,0.666 -0.875,1.534 -0.875,2.606 0,1.125 0.423,2.021 1.27,2.686 0.846,0.666 1.967,0.999 3.361,0.999 1.453,0 2.791,-0.267 4.011,-0.799 L -0.9,8.647 c -1.207,0.505 -2.381,0.759 -3.521,0.759 -0.9,0 -1.604,-0.193 -2.111,-0.579 -0.507,-0.387 -0.76,-0.923 -0.76,-1.608 0,-0.506 0.093,-0.92 0.28,-1.243 C -6.825,5.653 -6.51,5.356 -6.067,5.087 -5.623,4.817 -4.945,4.52 -4.031,4.193 -2.498,3.647 -1.442,3.062 -0.865,2.437 -0.289,1.811 0,0.998 0,0 Z"
             style="fill:none;stroke:#000000;stroke-width:0.25;stroke-linecap:butt;stroke-linejoin:miter;stroke-miterlimit:10;stroke-dasharray:none;stroke-opacity:1"
             id="path89" />
        </g>
        <g
           id="g91"
           transform="translate(45.9619,78.1377)">
          <path
             d="m 0,0 c 1.034,0 1.846,0.283 2.436,0.849 0.59,0.566 0.885,1.358 0.885,2.377 V 4.214 L 1.661,4.145 C 0.34,4.098 -0.612,3.893 -1.195,3.53 -1.779,3.167 -2.07,2.604 -2.07,1.838 -2.07,1.238 -1.889,0.782 -1.525,0.47 -1.162,0.156 -0.653,0 0,0 M 3.751,-1.168 3.421,0.39 H 3.341 C 2.794,-0.296 2.249,-0.761 1.706,-1.003 1.162,-1.246 0.483,-1.368 -0.33,-1.368 c -1.087,0 -1.939,0.28 -2.556,0.839 -0.616,0.559 -0.925,1.355 -0.925,2.386 0,2.21 1.77,3.369 5.311,3.476 l 1.861,0.06 v 0.678 c 0,0.86 -0.185,1.493 -0.555,1.903 -0.37,0.409 -0.962,0.614 -1.776,0.614 -0.913,0 -1.947,-0.279 -3.1,-0.839 l -0.511,1.269 c 0.54,0.293 1.132,0.522 1.776,0.688 0.643,0.166 1.288,0.25 1.935,0.25 1.308,0 2.276,-0.29 2.906,-0.869 C 4.667,8.508 4.981,7.579 4.981,6.301 v -7.469 z"
             style="fill:#000000;fill-opacity:1;fill-rule:nonzero;stroke:none"
             id="path93" />
        </g>
        <g
           id="g95"
           transform="translate(45.9619,78.1377)">
          <path
             d="m 0,0 c 1.034,0 1.846,0.283 2.436,0.849 0.59,0.566 0.885,1.358 0.885,2.377 V 4.214 L 1.661,4.145 C 0.34,4.098 -0.612,3.893 -1.195,3.53 -1.779,3.167 -2.07,2.604 -2.07,1.838 -2.07,1.238 -1.889,0.782 -1.525,0.47 -1.162,0.156 -0.653,0 0,0 Z M 3.751,-1.168 3.421,0.39 H 3.341 C 2.794,-0.296 2.249,-0.761 1.706,-1.003 1.162,-1.246 0.483,-1.368 -0.33,-1.368 c -1.087,0 -1.939,0.28 -2.556,0.839 -0.616,0.559 -0.925,1.355 -0.925,2.386 0,2.21 1.77,3.369 5.311,3.476 l 1.861,0.06 v 0.678 c 0,0.86 -0.185,1.493 -0.555,1.903 -0.37,0.409 -0.962,0.614 -1.776,0.614 -0.913,0 -1.947,-0.279 -3.1,-0.839 l -0.511,1.269 c 0.54,0.293 1.132,0.522 1.776,0.688 0.643,0.166 1.288,0.25 1.935,0.25 1.308,0 2.276,-0.29 2.906,-0.869 C 4.667,8.508 4.981,7.579 4.981,6.301 v -7.469 z"
             style="fill:none;stroke:#000000;stroke-width:0.25;stroke-linecap:butt;stroke-linejoin:miter;stroke-miterlimit:10;stroke-dasharray:none;stroke-opacity:1"
             id="path97" />
        </g>
        <g
           id="g99"
           transform="translate(61.8657,76.9697)">
          <path
             d="m 0,0 v 7.08 c 0,0.892 -0.204,1.558 -0.61,1.997 -0.407,0.44 -1.044,0.658 -1.911,0.658 -1.146,0 -1.987,-0.308 -2.52,-0.927 -0.534,-0.62 -0.8,-1.642 -0.8,-3.067 V 0 h -1.661 v 10.944 h 1.351 l 0.27,-1.498 h 0.08 c 0.34,0.539 0.817,0.957 1.43,1.253 0.613,0.296 1.297,0.445 2.051,0.445 1.32,0 2.313,-0.318 2.98,-0.954 C 1.327,9.555 1.661,8.537 1.661,7.14 V 0 Z"
             style="fill:#000000;fill-opacity:1;fill-rule:nonzero;stroke:none"
             id="path101" />
        </g>
        <g
           id="g103"
           transform="translate(61.8657,76.9697)">
          <path
             d="m 0,0 v 7.08 c 0,0.892 -0.204,1.558 -0.61,1.997 -0.407,0.44 -1.044,0.658 -1.911,0.658 -1.146,0 -1.987,-0.308 -2.52,-0.927 -0.534,-0.62 -0.8,-1.642 -0.8,-3.067 V 0 h -1.661 v 10.944 h 1.351 l 0.27,-1.498 h 0.08 c 0.34,0.539 0.817,0.957 1.43,1.253 0.613,0.296 1.297,0.445 2.051,0.445 1.32,0 2.313,-0.318 2.98,-0.954 C 1.327,9.555 1.661,8.537 1.661,7.14 V 0 Z"
             style="fill:none;stroke:#000000;stroke-width:0.25;stroke-linecap:butt;stroke-linejoin:miter;stroke-miterlimit:10;stroke-dasharray:none;stroke-opacity:1"
             id="path105" />
        </g>
        <g
           id="g107"
           transform="translate(70.478,78.1377)">
          <path
             d="M 0,0 C 0.293,0 0.577,0.021 0.85,0.065 1.124,0.108 1.34,0.153 1.5,0.2 V -1.068 C 1.32,-1.154 1.055,-1.227 0.705,-1.283 0.355,-1.339 0.04,-1.368 -0.24,-1.368 c -2.12,0 -3.181,1.115 -3.181,3.346 v 6.51 h -1.57 v 0.799 l 1.57,0.689 0.7,2.337 H -1.76 V 9.776 H 1.42 V 8.488 H -1.76 V 2.047 c 0,-0.658 0.156,-1.164 0.469,-1.518 C -0.977,0.177 -0.547,0 0,0"
             style="fill:#000000;fill-opacity:1;fill-rule:nonzero;stroke:none"
             id="path109" />
        </g>
        <g
           id="g111"
           transform="translate(70.478,78.1377)">
          <path
             d="M 0,0 C 0.293,0 0.577,0.021 0.85,0.065 1.124,0.108 1.34,0.153 1.5,0.2 V -1.068 C 1.32,-1.154 1.055,-1.227 0.705,-1.283 0.355,-1.339 0.04,-1.368 -0.24,-1.368 c -2.12,0 -3.181,1.115 -3.181,3.346 v 6.51 h -1.57 v 0.799 l 1.57,0.689 0.7,2.337 H -1.76 V 9.776 H 1.42 V 8.488 H -1.76 V 2.047 c 0,-0.658 0.156,-1.164 0.469,-1.518 C -0.977,0.177 -0.547,0 0,0 Z"
             style="fill:none;stroke:#000000;stroke-width:0.25;stroke-linecap:butt;stroke-linejoin:miter;stroke-miterlimit:10;stroke-dasharray:none;stroke-opacity:1"
             id="path113" />
        </g>
        <g
           id="g115"
           transform="translate(77.1602,78.1377)">
          <path
             d="M 0,0 C 1.033,0 1.846,0.283 2.436,0.849 3.025,1.415 3.32,2.207 3.32,3.226 V 4.214 L 1.66,4.145 C 0.34,4.098 -0.611,3.893 -1.196,3.53 -1.779,3.167 -2.071,2.604 -2.071,1.838 c 0,-0.6 0.182,-1.056 0.545,-1.368 C -1.162,0.156 -0.654,0 0,0 M 3.75,-1.168 3.42,0.39 H 3.34 C 2.793,-0.296 2.248,-0.761 1.705,-1.003 1.162,-1.246 0.482,-1.368 -0.33,-1.368 c -1.087,0 -1.94,0.28 -2.556,0.839 -0.617,0.559 -0.925,1.355 -0.925,2.386 0,2.21 1.77,3.369 5.311,3.476 l 1.861,0.06 v 0.678 c 0,0.86 -0.185,1.493 -0.556,1.903 -0.369,0.409 -0.961,0.614 -1.776,0.614 -0.912,0 -1.947,-0.279 -3.1,-0.839 l -0.51,1.269 c 0.54,0.293 1.132,0.522 1.775,0.688 0.644,0.166 1.288,0.25 1.937,0.25 1.307,0 2.275,-0.29 2.904,-0.869 C 4.666,8.508 4.98,7.579 4.98,6.301 v -7.469 z"
             style="fill:#000000;fill-opacity:1;fill-rule:nonzero;stroke:none"
             id="path117" />
        </g>
        <g
           id="g119"
           transform="translate(77.1602,78.1377)">
          <path
             d="M 0,0 C 1.033,0 1.846,0.283 2.436,0.849 3.025,1.415 3.32,2.207 3.32,3.226 V 4.214 L 1.66,4.145 C 0.34,4.098 -0.611,3.893 -1.196,3.53 -1.779,3.167 -2.071,2.604 -2.071,1.838 c 0,-0.6 0.182,-1.056 0.545,-1.368 C -1.162,0.156 -0.654,0 0,0 Z M 3.75,-1.168 3.42,0.39 H 3.34 C 2.793,-0.296 2.248,-0.761 1.705,-1.003 1.162,-1.246 0.482,-1.368 -0.33,-1.368 c -1.087,0 -1.94,0.28 -2.556,0.839 -0.617,0.559 -0.925,1.355 -0.925,2.386 0,2.21 1.77,3.369 5.311,3.476 l 1.861,0.06 v 0.678 c 0,0.86 -0.185,1.493 -0.556,1.903 -0.369,0.409 -0.961,0.614 -1.776,0.614 -0.912,0 -1.947,-0.279 -3.1,-0.839 l -0.51,1.269 c 0.54,0.293 1.132,0.522 1.775,0.688 0.644,0.166 1.288,0.25 1.937,0.25 1.307,0 2.275,-0.29 2.904,-0.869 C 4.666,8.508 4.98,7.579 4.98,6.301 v -7.469 z"
             style="fill:none;stroke:#000000;stroke-width:0.25;stroke-linecap:butt;stroke-linejoin:miter;stroke-miterlimit:10;stroke-dasharray:none;stroke-opacity:1"
             id="path121" />
        </g>
        <g
           id="g123"
           transform="translate(97.3955,90.2607)">
          <path
             d="m 0,0 c -1.607,0 -2.876,-0.534 -3.807,-1.603 -0.929,-1.069 -1.395,-2.532 -1.395,-4.388 0,-1.911 0.449,-3.388 1.346,-4.429 0.896,-1.042 2.175,-1.563 3.835,-1.563 1.021,0 2.184,0.183 3.492,0.549 v -1.488 c -1.014,-0.379 -2.265,-0.569 -3.751,-0.569 -2.155,0 -3.817,0.652 -4.987,1.958 -1.17,1.304 -1.755,3.158 -1.755,5.561 0,1.504 0.282,2.823 0.845,3.954 0.564,1.132 1.377,2.004 2.441,2.617 1.063,0.612 2.315,0.919 3.756,0.919 1.534,0 2.874,-0.28 4.021,-0.839 L 3.32,-0.779 C 2.214,-0.26 1.106,0 0,0"
             style="fill:#000000;fill-opacity:1;fill-rule:nonzero;stroke:none"
             id="path125" />
        </g>
        <g
           id="g127"
           transform="translate(97.3955,90.2607)">
          <path
             d="m 0,0 c -1.607,0 -2.876,-0.534 -3.807,-1.603 -0.929,-1.069 -1.395,-2.532 -1.395,-4.388 0,-1.911 0.449,-3.388 1.346,-4.429 0.896,-1.042 2.175,-1.563 3.835,-1.563 1.021,0 2.184,0.183 3.492,0.549 v -1.488 c -1.014,-0.379 -2.265,-0.569 -3.751,-0.569 -2.155,0 -3.817,0.652 -4.987,1.958 -1.17,1.304 -1.755,3.158 -1.755,5.561 0,1.504 0.282,2.823 0.845,3.954 0.564,1.132 1.377,2.004 2.441,2.617 1.063,0.612 2.315,0.919 3.756,0.919 1.534,0 2.874,-0.28 4.021,-0.839 L 3.32,-0.779 C 2.214,-0.26 1.106,0 0,0 Z"
             style="fill:none;stroke:#000000;stroke-width:0.25;stroke-linecap:butt;stroke-linejoin:miter;stroke-miterlimit:10;stroke-dasharray:none;stroke-opacity:1"
             id="path129" />
        </g>
        <g
           id="g131"
           transform="translate(106.7969,78.1377)">
          <path
             d="m 0,0 c 1.034,0 1.846,0.283 2.436,0.849 0.59,0.566 0.885,1.358 0.885,2.377 V 4.214 L 1.66,4.145 C 0.34,4.098 -0.611,3.893 -1.195,3.53 -1.778,3.167 -2.07,2.604 -2.07,1.838 -2.07,1.238 -1.889,0.782 -1.525,0.47 -1.162,0.156 -0.653,0 0,0 M 3.751,-1.168 3.421,0.39 H 3.341 C 2.794,-0.296 2.249,-0.761 1.706,-1.003 1.162,-1.246 0.483,-1.368 -0.33,-1.368 c -1.087,0 -1.939,0.28 -2.556,0.839 -0.616,0.559 -0.925,1.355 -0.925,2.386 0,2.21 1.771,3.369 5.312,3.476 l 1.86,0.06 v 0.678 c 0,0.86 -0.185,1.493 -0.555,1.903 -0.37,0.409 -0.962,0.614 -1.776,0.614 -0.913,0 -1.947,-0.279 -3.1,-0.839 l -0.51,1.269 c 0.54,0.293 1.132,0.522 1.775,0.688 0.644,0.166 1.288,0.25 1.936,0.25 1.307,0 2.275,-0.29 2.905,-0.869 0.63,-0.579 0.945,-1.508 0.945,-2.786 v -7.469 z"
             style="fill:#000000;fill-opacity:1;fill-rule:nonzero;stroke:none"
             id="path133" />
        </g>
        <g
           id="g135"
           transform="translate(106.7969,78.1377)">
          <path
             d="m 0,0 c 1.034,0 1.846,0.283 2.436,0.849 0.59,0.566 0.885,1.358 0.885,2.377 V 4.214 L 1.66,4.145 C 0.34,4.098 -0.611,3.893 -1.195,3.53 -1.778,3.167 -2.07,2.604 -2.07,1.838 -2.07,1.238 -1.889,0.782 -1.525,0.47 -1.162,0.156 -0.653,0 0,0 Z M 3.751,-1.168 3.421,0.39 H 3.341 C 2.794,-0.296 2.249,-0.761 1.706,-1.003 1.162,-1.246 0.483,-1.368 -0.33,-1.368 c -1.087,0 -1.939,0.28 -2.556,0.839 -0.616,0.559 -0.925,1.355 -0.925,2.386 0,2.21 1.771,3.369 5.312,3.476 l 1.86,0.06 v 0.678 c 0,0.86 -0.185,1.493 -0.555,1.903 -0.37,0.409 -0.962,0.614 -1.776,0.614 -0.913,0 -1.947,-0.279 -3.1,-0.839 l -0.51,1.269 c 0.54,0.293 1.132,0.522 1.775,0.688 0.644,0.166 1.288,0.25 1.936,0.25 1.307,0 2.275,-0.29 2.905,-0.869 0.63,-0.579 0.945,-1.508 0.945,-2.786 v -7.469 z"
             style="fill:none;stroke:#000000;stroke-width:0.25;stroke-linecap:butt;stroke-linejoin:miter;stroke-miterlimit:10;stroke-dasharray:none;stroke-opacity:1"
             id="path137" />
        </g>
        <g
           id="g139"
           transform="translate(118.7402,78.1377)">
          <path
             d="M 0,0 C 0.293,0 0.576,0.021 0.85,0.065 1.123,0.108 1.34,0.153 1.5,0.2 V -1.068 C 1.32,-1.154 1.055,-1.227 0.705,-1.283 0.354,-1.339 0.039,-1.368 -0.24,-1.368 c -2.121,0 -3.181,1.115 -3.181,3.346 v 6.51 h -1.57 v 0.799 l 1.57,0.689 0.7,2.337 h 0.96 V 9.776 H 1.42 V 8.488 H -1.761 V 2.047 c 0,-0.658 0.157,-1.164 0.47,-1.518 C -0.978,0.177 -0.547,0 0,0"
             style="fill:#000000;fill-opacity:1;fill-rule:nonzero;stroke:none"
             id="path141" />
        </g>
        <g
           id="g143"
           transform="translate(118.7402,78.1377)">
          <path
             d="M 0,0 C 0.293,0 0.576,0.021 0.85,0.065 1.123,0.108 1.34,0.153 1.5,0.2 V -1.068 C 1.32,-1.154 1.055,-1.227 0.705,-1.283 0.354,-1.339 0.039,-1.368 -0.24,-1.368 c -2.121,0 -3.181,1.115 -3.181,3.346 v 6.51 h -1.57 v 0.799 l 1.57,0.689 0.7,2.337 h 0.96 V 9.776 H 1.42 V 8.488 H -1.761 V 2.047 c 0,-0.658 0.157,-1.164 0.47,-1.518 C -0.978,0.177 -0.547,0 0,0 Z"
             style="fill:none;stroke:#000000;stroke-width:0.25;stroke-linecap:butt;stroke-linejoin:miter;stroke-miterlimit:10;stroke-dasharray:none;stroke-opacity:1"
             id="path145" />
        </g>
        <g
           id="g147"
           transform="translate(125.4209,78.1377)">
          <path
             d="m 0,0 c 1.034,0 1.846,0.283 2.436,0.849 0.59,0.566 0.885,1.358 0.885,2.377 V 4.214 L 1.66,4.145 C 0.34,4.098 -0.611,3.893 -1.195,3.53 -1.778,3.167 -2.07,2.604 -2.07,1.838 -2.07,1.238 -1.889,0.782 -1.525,0.47 -1.162,0.156 -0.653,0 0,0 M 3.751,-1.168 3.421,0.39 H 3.341 C 2.794,-0.296 2.249,-0.761 1.706,-1.003 1.162,-1.246 0.483,-1.368 -0.33,-1.368 c -1.087,0 -1.939,0.28 -2.556,0.839 -0.616,0.559 -0.925,1.355 -0.925,2.386 0,2.21 1.771,3.369 5.312,3.476 l 1.86,0.06 v 0.678 c 0,0.86 -0.185,1.493 -0.555,1.903 -0.37,0.409 -0.962,0.614 -1.776,0.614 -0.913,0 -1.947,-0.279 -3.1,-0.839 l -0.51,1.269 c 0.54,0.293 1.132,0.522 1.775,0.688 0.644,0.166 1.288,0.25 1.936,0.25 1.307,0 2.275,-0.29 2.905,-0.869 0.63,-0.579 0.945,-1.508 0.945,-2.786 v -7.469 z"
             style="fill:#000000;fill-opacity:1;fill-rule:nonzero;stroke:none"
             id="path149" />
        </g>
        <g
           id="g151"
           transform="translate(125.4209,78.1377)">
          <path
             d="m 0,0 c 1.034,0 1.846,0.283 2.436,0.849 0.59,0.566 0.885,1.358 0.885,2.377 V 4.214 L 1.66,4.145 C 0.34,4.098 -0.611,3.893 -1.195,3.53 -1.778,3.167 -2.07,2.604 -2.07,1.838 -2.07,1.238 -1.889,0.782 -1.525,0.47 -1.162,0.156 -0.653,0 0,0 Z M 3.751,-1.168 3.421,0.39 H 3.341 C 2.794,-0.296 2.249,-0.761 1.706,-1.003 1.162,-1.246 0.483,-1.368 -0.33,-1.368 c -1.087,0 -1.939,0.28 -2.556,0.839 -0.616,0.559 -0.925,1.355 -0.925,2.386 0,2.21 1.771,3.369 5.312,3.476 l 1.86,0.06 v 0.678 c 0,0.86 -0.185,1.493 -0.555,1.903 -0.37,0.409 -0.962,0.614 -1.776,0.614 -0.913,0 -1.947,-0.279 -3.1,-0.839 l -0.51,1.269 c 0.54,0.293 1.132,0.522 1.775,0.688 0.644,0.166 1.288,0.25 1.936,0.25 1.307,0 2.275,-0.29 2.905,-0.869 0.63,-0.579 0.945,-1.508 0.945,-2.786 v -7.469 z"
             style="fill:none;stroke:#000000;stroke-width:0.25;stroke-linecap:butt;stroke-linejoin:miter;stroke-miterlimit:10;stroke-dasharray:none;stroke-opacity:1"
             id="path153" />
        </g>
        <g
           id="g155"
           transform="translate(138.8242,88.1133)">
          <path
             d="M 0,0 C 0.486,0 0.924,-0.04 1.311,-0.119 L 1.08,-1.657 c -0.453,0.099 -0.853,0.149 -1.2,0.149 -0.887,0 -1.646,-0.359 -2.276,-1.078 -0.629,-0.719 -0.945,-1.614 -0.945,-2.686 v -5.872 h -1.66 v 10.945 h 1.37 l 0.191,-2.028 h 0.079 c 0.407,0.712 0.897,1.262 1.47,1.648 C -1.317,-0.193 -0.687,0 0,0"
             style="fill:#000000;fill-opacity:1;fill-rule:nonzero;stroke:none"
             id="path157" />
        </g>
        <g
           id="g159"
           transform="translate(138.8242,88.1133)">
          <path
             d="M 0,0 C 0.486,0 0.924,-0.04 1.311,-0.119 L 1.08,-1.657 c -0.453,0.099 -0.853,0.149 -1.2,0.149 -0.887,0 -1.646,-0.359 -2.276,-1.078 -0.629,-0.719 -0.945,-1.614 -0.945,-2.686 v -5.872 h -1.66 v 10.945 h 1.37 l 0.191,-2.028 h 0.079 c 0.407,0.712 0.897,1.262 1.47,1.648 C -1.317,-0.193 -0.687,0 0,0 Z"
             style="fill:none;stroke:#000000;stroke-width:0.25;stroke-linecap:butt;stroke-linejoin:miter;stroke-miterlimit:10;stroke-dasharray:none;stroke-opacity:1"
             id="path161" />
        </g>
        <path
           d="m 143.846,76.97 h -1.66 v 10.944 h 1.66 z m -1.801,13.91 c 0,0.379 0.094,0.657 0.28,0.833 0.187,0.177 0.42,0.265 0.7,0.265 0.267,0 0.497,-0.09 0.691,-0.27 0.193,-0.18 0.29,-0.456 0.29,-0.828 0,-0.373 -0.097,-0.651 -0.29,-0.834 -0.194,-0.184 -0.424,-0.275 -0.691,-0.275 -0.28,0 -0.513,0.091 -0.7,0.275 -0.186,0.183 -0.28,0.461 -0.28,0.834"
           style="fill:#000000;fill-opacity:1;fill-rule:nonzero;stroke:none"
           id="path163" />
        <path
           d="m 143.846,76.97 h -1.66 v 10.944 h 1.66 z m -1.801,13.91 c 0,0.379 0.094,0.657 0.28,0.833 0.187,0.177 0.42,0.265 0.7,0.265 0.267,0 0.497,-0.09 0.691,-0.27 0.193,-0.18 0.29,-0.456 0.29,-0.828 0,-0.373 -0.097,-0.651 -0.29,-0.834 -0.194,-0.184 -0.424,-0.275 -0.691,-0.275 -0.28,0 -0.513,0.091 -0.7,0.275 -0.186,0.183 -0.28,0.461 -0.28,0.834 z"
           style="fill:none;stroke:#000000;stroke-width:0.25;stroke-linecap:butt;stroke-linejoin:miter;stroke-miterlimit:10;stroke-dasharray:none;stroke-opacity:1"
           id="path165" />
        <g
           id="g167"
           transform="translate(154.8691,76.9697)">
          <path
             d="m 0,0 v 7.08 c 0,0.892 -0.204,1.558 -0.61,1.997 -0.408,0.44 -1.044,0.658 -1.911,0.658 -1.147,0 -1.987,-0.308 -2.521,-0.927 -0.533,-0.62 -0.8,-1.642 -0.8,-3.067 V 0 h -1.66 v 10.944 h 1.35 l 0.27,-1.498 h 0.08 c 0.34,0.539 0.817,0.957 1.431,1.253 0.613,0.296 1.297,0.445 2.05,0.445 1.32,0 2.314,-0.318 2.981,-0.954 0.666,-0.635 1,-1.653 1,-3.05 L 1.66,0 Z"
             style="fill:#000000;fill-opacity:1;fill-rule:nonzero;stroke:none"
             id="path169" />
        </g>
        <g
           id="g171"
           transform="translate(154.8691,76.9697)">
          <path
             d="m 0,0 v 7.08 c 0,0.892 -0.204,1.558 -0.61,1.997 -0.408,0.44 -1.044,0.658 -1.911,0.658 -1.147,0 -1.987,-0.308 -2.521,-0.927 -0.533,-0.62 -0.8,-1.642 -0.8,-3.067 V 0 h -1.66 v 10.944 h 1.35 l 0.27,-1.498 h 0.08 c 0.34,0.539 0.817,0.957 1.431,1.253 0.613,0.296 1.297,0.445 2.05,0.445 1.32,0 2.314,-0.318 2.981,-0.954 0.666,-0.635 1,-1.653 1,-3.05 L 1.66,0 Z"
             style="fill:none;stroke:#000000;stroke-width:0.25;stroke-linecap:butt;stroke-linejoin:miter;stroke-miterlimit:10;stroke-dasharray:none;stroke-opacity:1"
             id="path173" />
        </g>
        <g
           id="g175"
           transform="translate(162.9307,78.1377)">
          <path
             d="m 0,0 c 1.034,0 1.846,0.283 2.436,0.849 0.59,0.566 0.885,1.358 0.885,2.377 V 4.214 L 1.66,4.145 C 0.34,4.098 -0.611,3.893 -1.195,3.53 -1.778,3.167 -2.07,2.604 -2.07,1.838 -2.07,1.238 -1.889,0.782 -1.525,0.47 -1.162,0.156 -0.653,0 0,0 M 3.751,-1.168 3.421,0.39 H 3.341 C 2.794,-0.296 2.249,-0.761 1.706,-1.003 1.162,-1.246 0.483,-1.368 -0.33,-1.368 c -1.087,0 -1.939,0.28 -2.556,0.839 -0.616,0.559 -0.925,1.355 -0.925,2.386 0,2.21 1.771,3.369 5.312,3.476 l 1.86,0.06 v 0.678 c 0,0.86 -0.185,1.493 -0.555,1.903 -0.37,0.409 -0.962,0.614 -1.776,0.614 -0.913,0 -1.947,-0.279 -3.1,-0.839 l -0.51,1.269 c 0.54,0.293 1.132,0.522 1.775,0.688 0.644,0.166 1.288,0.25 1.936,0.25 1.307,0 2.275,-0.29 2.905,-0.869 0.63,-0.579 0.945,-1.508 0.945,-2.786 v -7.469 z"
             style="fill:#000000;fill-opacity:1;fill-rule:nonzero;stroke:none"
             id="path177" />
        </g>
        <g
           id="g179"
           transform="translate(162.9307,78.1377)">
          <path
             d="m 0,0 c 1.034,0 1.846,0.283 2.436,0.849 0.59,0.566 0.885,1.358 0.885,2.377 V 4.214 L 1.66,4.145 C 0.34,4.098 -0.611,3.893 -1.195,3.53 -1.778,3.167 -2.07,2.604 -2.07,1.838 -2.07,1.238 -1.889,0.782 -1.525,0.47 -1.162,0.156 -0.653,0 0,0 Z M 3.751,-1.168 3.421,0.39 H 3.341 C 2.794,-0.296 2.249,-0.761 1.706,-1.003 1.162,-1.246 0.483,-1.368 -0.33,-1.368 c -1.087,0 -1.939,0.28 -2.556,0.839 -0.616,0.559 -0.925,1.355 -0.925,2.386 0,2.21 1.771,3.369 5.312,3.476 l 1.86,0.06 v 0.678 c 0,0.86 -0.185,1.493 -0.555,1.903 -0.37,0.409 -0.962,0.614 -1.776,0.614 -0.913,0 -1.947,-0.279 -3.1,-0.839 l -0.51,1.269 c 0.54,0.293 1.132,0.522 1.775,0.688 0.644,0.166 1.288,0.25 1.936,0.25 1.307,0 2.275,-0.29 2.905,-0.869 0.63,-0.579 0.945,-1.508 0.945,-2.786 v -7.469 z"
             style="fill:none;stroke:#000000;stroke-width:0.25;stroke-linecap:butt;stroke-linejoin:miter;stroke-miterlimit:10;stroke-dasharray:none;stroke-opacity:1"
             id="path181" />
        </g>
        <g
           id="g183"
           transform="translate(110.0645,227.7832)">
          <path
             d="m 0,0 c 0,-1.04 -0.867,-1.906 -1.907,-1.906 h -15.596 c -1.04,0 -1.907,0.866 -1.907,1.906 v 15.598 c 0,1.039 0.867,1.905 1.907,1.905 H -1.907 C -0.867,17.503 0,16.637 0,15.598 Z"
             style="fill:#32a041;fill-opacity:1;fill-rule:nonzero;stroke:none"
             id="path185" />
        </g>
        <g
           id="g187"
           transform="translate(133.2871,227.7832)">
          <path
             d="m 0,0 c 0,-1.04 -0.867,-1.906 -1.908,-1.906 h -15.596 c -1.041,0 -1.906,0.866 -1.906,1.906 v 15.598 c 0,1.039 0.865,1.905 1.906,1.905 H -1.908 C -0.867,17.503 0,16.637 0,15.598 Z"
             style="fill:#32a041;fill-opacity:1;fill-rule:nonzero;stroke:none"
             id="path189" />
        </g>
        <g
           id="g191"
           transform="translate(133.2871,181.3379)">
          <path
             d="m 0,0 c 0,-1.039 -0.867,-1.906 -1.908,-1.906 h -15.596 c -1.041,0 -1.906,0.867 -1.906,1.906 v 15.597 c 0,1.041 0.865,1.907 1.906,1.907 H -1.908 C -0.867,17.504 0,16.638 0,15.597 Z"
             style="fill:#32a041;fill-opacity:1;fill-rule:nonzero;stroke:none"
             id="path193" />
        </g>
        <g
           id="g195"
           transform="translate(86.8423,204.5596)">
          <path
             d="m 0,0 c 0,-1.038 -0.868,-1.904 -1.906,-1.904 h -15.599 c -1.039,0 -1.906,0.866 -1.906,1.904 v 15.599 c 0,1.04 0.867,1.906 1.906,1.906 H -1.906 C -0.868,17.505 0,16.639 0,15.599 Z"
             style="fill:#32a041;fill-opacity:1;fill-rule:nonzero;stroke:none"
             id="path197" />
        </g>
        <g
           id="g199"
           transform="translate(110.0645,204.5596)">
          <path
             d="m 0,0 c 0,-1.038 -0.867,-1.904 -1.907,-1.904 h -15.596 c -1.04,0 -1.907,0.866 -1.907,1.904 v 15.599 c 0,1.04 0.867,1.906 1.907,1.906 H -1.907 C -0.867,17.505 0,16.639 0,15.599 Z"
             style="fill:#32a041;fill-opacity:1;fill-rule:nonzero;stroke:none"
             id="path201" />
        </g>
        <g
           id="g203"
           transform="translate(86.8423,181.3379)">
          <path
             d="m 0,0 c 0,-1.039 -0.868,-1.906 -1.906,-1.906 h -15.599 c -1.039,0 -1.906,0.867 -1.906,1.906 v 15.597 c 0,1.041 0.867,1.907 1.906,1.907 H -1.906 C -0.868,17.504 0,16.638 0,15.597 Z"
             style="fill:#32a041;fill-opacity:1;fill-rule:nonzero;stroke:none"
             id="path205" />
        </g>
        <g
           id="g207"
           transform="translate(110.0645,181.3379)">
          <path
             d="m 0,0 c 0,-1.039 -0.867,-1.906 -1.907,-1.906 h -15.596 c -1.04,0 -1.907,0.867 -1.907,1.906 v 15.597 c 0,1.041 0.867,1.907 1.907,1.907 H -1.907 C -0.867,17.504 0,16.638 0,15.597 Z"
             style="fill:#32a041;fill-opacity:1;fill-rule:nonzero;stroke:none"
             id="path209" />
        </g>
        <g
           id="g211"
           transform="translate(86.8423,158.1152)">
          <path
             d="m 0,0 c 0,-1.04 -0.868,-1.906 -1.906,-1.906 h -15.599 c -1.039,0 -1.906,0.866 -1.906,1.906 v 15.597 c 0,1.04 0.867,1.906 1.906,1.906 H -1.906 C -0.868,17.503 0,16.637 0,15.597 Z"
             style="fill:#32a041;fill-opacity:1;fill-rule:nonzero;stroke:none"
             id="path213" />
        </g>
        <g
           id="g215"
           transform="translate(110.0645,158.1152)">
          <path
             d="m 0,0 c 0,-1.04 -0.867,-1.906 -1.907,-1.906 h -15.596 c -1.04,0 -1.907,0.866 -1.907,1.906 v 15.597 c 0,1.04 0.867,1.906 1.907,1.906 H -1.907 C -0.867,17.503 0,16.637 0,15.597 Z"
             style="fill:#32a041;fill-opacity:1;fill-rule:nonzero;stroke:none"
             id="path217" />
        </g>
        <g
           id="g219"
           transform="translate(87.8813,235.582)">
          <path
             d="m 0,0 c 0,-5.893 -4.68,-10.571 -10.571,-10.571 -5.892,0 -10.573,4.678 -10.573,10.571 0,5.892 4.681,10.57 10.573,10.57 C -4.852,10.57 0,5.892 0,0"
             style="fill:#c8191e;fill-opacity:1;fill-rule:nonzero;stroke:none"
             id="path221" />
        </g>
        <path
           d="m 30.345,142.684 h 4.086 v -19.239 h -4.086 z"
           style="fill:#000000;fill-opacity:1;fill-rule:nonzero;stroke:none"
           id="path223" />
        <g
           id="g225"
           transform="translate(56.4707,123.4443)">
          <path
             d="m 0,0 h -5.194 l -8.384,14.555 h -0.118 c 0.167,-2.572 0.25,-4.405 0.25,-5.501 V 0 h -3.651 v 19.239 h 5.154 l 8.371,-14.41 h 0.092 c -0.132,2.501 -0.198,4.269 -0.198,5.304 v 9.106 H 0 Z"
             style="fill:#000000;fill-opacity:1;fill-rule:nonzero;stroke:none"
             id="path227" />
        </g>
        <g
           id="g229"
           transform="translate(72.6978,128.7871)">
          <path
             d="m 0,0 c 0,-1.737 -0.626,-3.105 -1.879,-4.105 -1.252,-1 -2.994,-1.501 -5.226,-1.501 -2.057,0 -3.876,0.386 -5.458,1.158 v 3.79 c 1.301,-0.579 2.401,-0.987 3.302,-1.224 0.901,-0.237 1.725,-0.355 2.472,-0.355 0.896,0 1.584,0.171 2.063,0.513 0.479,0.342 0.719,0.851 0.719,1.527 0,0.377 -0.106,0.713 -0.317,1.007 -0.211,0.294 -0.521,0.576 -0.929,0.848 -0.409,0.272 -1.242,0.706 -2.498,1.303 -1.178,0.553 -2.061,1.083 -2.65,1.593 -0.589,0.508 -1.059,1.1 -1.411,1.776 -0.351,0.675 -0.526,1.465 -0.526,2.368 0,1.702 0.577,3.04 1.733,4.014 1.155,0.974 2.752,1.461 4.792,1.461 1.001,0 1.957,-0.118 2.867,-0.356 0.909,-0.236 1.86,-0.57 2.854,-1 L -1.411,9.646 c -1.028,0.421 -1.878,0.715 -2.55,0.881 -0.673,0.167 -1.334,0.25 -1.984,0.25 -0.774,0 -1.367,-0.179 -1.78,-0.539 -0.413,-0.36 -0.619,-0.829 -0.619,-1.408 0,-0.359 0.083,-0.674 0.25,-0.94 0.167,-0.269 0.433,-0.527 0.798,-0.778 0.364,-0.25 1.228,-0.699 2.59,-1.348 C -2.905,4.904 -1.67,4.042 -1.002,3.178 -0.334,2.313 0,1.255 0,0"
             style="fill:#000000;fill-opacity:1;fill-rule:nonzero;stroke:none"
             id="path231" />
        </g>
        <g
           id="g233"
           transform="translate(83.6108,123.4443)">
          <path
             d="m 0,0 h -4.086 v 15.844 h -5.233 v 3.395 H 5.234 V 15.844 H 0 Z"
             style="fill:#000000;fill-opacity:1;fill-rule:nonzero;stroke:none"
             id="path235" />
        </g>
        <path
           d="m 91.811,142.684 h 4.086 v -19.239 h -4.086 z"
           style="fill:#000000;fill-opacity:1;fill-rule:nonzero;stroke:none"
           id="path237" />
        <g
           id="g239"
           transform="translate(108.1831,123.4443)">
          <path
             d="M 0,0 H -4.087 V 15.844 H -9.32 v 3.395 H 5.233 V 15.844 H 0 Z"
             style="fill:#000000;fill-opacity:1;fill-rule:nonzero;stroke:none"
             id="path241" />
        </g>
        <g
           id="g243"
           transform="translate(132.1367,142.6836)">
          <path
             d="m 0,0 v -12.449 c 0,-1.421 -0.318,-2.667 -0.955,-3.738 -0.637,-1.07 -1.559,-1.89 -2.762,-2.46 -1.205,-0.571 -2.629,-0.856 -4.271,-0.856 -2.479,0 -4.403,0.634 -5.774,1.902 -1.371,1.268 -2.056,3.002 -2.056,5.205 V 0 h 4.074 v -11.777 c 0,-1.484 0.299,-2.572 0.896,-3.264 0.596,-0.693 1.586,-1.04 2.965,-1.04 1.336,0 2.305,0.349 2.906,1.046 0.602,0.698 0.905,1.792 0.905,3.284 V 0 Z"
             style="fill:#000000;fill-opacity:1;fill-rule:nonzero;stroke:none"
             id="path245" />
        </g>
        <g
           id="g247"
           transform="translate(144.3691,123.4443)">
          <path
             d="M 0,0 H -4.086 V 15.844 H -9.32 v 3.395 H 5.234 V 15.844 H 0 Z"
             style="fill:#000000;fill-opacity:1;fill-rule:nonzero;stroke:none"
             id="path249" />
        </g>
        <g
           id="g251"
           transform="translate(155.9863,133.0898)">
          <path
             d="m 0,0 c 0,-2.149 0.41,-3.768 1.227,-4.855 0.816,-1.088 2.039,-1.632 3.664,-1.632 3.261,0 4.89,2.162 4.89,6.487 0,4.334 -1.621,6.501 -4.863,6.501 C 3.291,6.501 2.066,5.955 1.24,4.863 0.414,3.771 0,2.149 0,0 m 14.066,0 c 0,-3.185 -0.791,-5.632 -2.373,-7.343 -1.582,-1.711 -3.849,-2.566 -6.802,-2.566 -2.952,0 -5.219,0.855 -6.801,2.566 -1.582,1.711 -2.373,4.167 -2.373,7.369 0,3.203 0.793,5.648 2.379,7.337 1.586,1.689 3.859,2.533 6.822,2.533 2.961,0 5.227,-0.85 6.795,-2.552 C 13.281,5.642 14.066,3.193 14.066,0"
             style="fill:#000000;fill-opacity:1;fill-rule:nonzero;stroke:none"
             id="path253" />
        </g>
        <g
           id="g255"
           transform="translate(47.7847,100.3203)">
          <path
             d="M 0,0 H -4.021 V 19.239 H 7.026 V 15.896 H 0 v -4.96 H 6.539 V 7.606 H 0 Z"
             style="fill:#000000;fill-opacity:1;fill-rule:nonzero;stroke:none"
             id="path257" />
        </g>
        <g
           id="g259"
           transform="translate(69.7935,100.3203)">
          <path
             d="M 0,0 H -11.1 V 19.239 H 0 v -3.343 h -7.013 v -4.223 h 6.525 V 8.33 H -7.013 V 3.369 H 0 Z"
             style="fill:#000000;fill-opacity:1;fill-rule:nonzero;stroke:none"
             id="path261" />
        </g>
        <g
           id="g263"
           transform="translate(85.5591,110.0186)">
          <path
             d="M 0,0 C 0,4.133 -1.828,6.198 -5.484,6.198 H -7.659 V -6.329 h 1.753 C -1.969,-6.329 0,-4.22 0,0 m 4.244,0.105 c 0,-3.167 -0.902,-5.592 -2.709,-7.277 -1.806,-1.684 -4.414,-2.526 -7.823,-2.526 h -5.458 V 9.541 h 6.051 c 3.146,0 5.59,-0.829 7.329,-2.487 1.74,-1.658 2.61,-3.974 2.61,-6.949"
             style="fill:#000000;fill-opacity:1;fill-rule:nonzero;stroke:none"
             id="path265" />
        </g>
        <g
           id="g267"
           transform="translate(104.896,100.3203)">
          <path
             d="M 0,0 H -11.099 V 19.239 H 0 v -3.343 h -7.013 v -4.223 h 6.526 V 8.33 H -7.013 V 3.369 H 0 Z"
             style="fill:#000000;fill-opacity:1;fill-rule:nonzero;stroke:none"
             id="path269" />
        </g>
        <g
           id="g271"
           transform="translate(113.0039,111.0195)">
          <path
             d="M 0,0 H 1.318 C 2.609,0 3.563,0.215 4.178,0.645 4.793,1.074 5.102,1.75 5.102,2.671 5.102,3.583 4.787,4.232 4.158,4.618 3.529,5.005 2.557,5.197 1.238,5.197 H 0 Z m 0,-3.316 v -7.383 H -4.086 V 8.54 H 1.529 C 4.148,8.54 6.086,8.064 7.342,7.112 8.6,6.16 9.227,4.715 9.227,2.776 9.227,1.645 8.914,0.638 8.291,-0.244 7.668,-1.126 6.783,-1.816 5.641,-2.316 c 2.9,-4.326 4.791,-7.12 5.67,-8.383 H 6.775 l -4.601,7.383 z"
             style="fill:#000000;fill-opacity:1;fill-rule:nonzero;stroke:none"
             id="path273" />
        </g>
        <g
           id="g275"
           transform="translate(136.168,108.3213)">
          <path
             d="M 0,0 C -1.291,4.149 -2.02,6.496 -2.182,7.04 -2.344,7.584 -2.461,8.015 -2.531,8.33 -2.82,7.207 -3.65,4.431 -5.021,0 Z m 2.373,-8.001 -1.396,4.579 h -7.028 l -1.396,-4.579 h -4.403 l 6.801,19.318 h 4.996 L 6.775,-8.001 Z"
             style="fill:#000000;fill-opacity:1;fill-rule:nonzero;stroke:none"
             id="path277" />
        </g>
        <g
           id="g279"
           transform="translate(145.4941,100.3203)">
          <path
             d="M 0,0 V 19.239 H 4.086 V 3.369 h 7.816 V 0 Z"
             style="fill:#000000;fill-opacity:1;fill-rule:nonzero;stroke:none"
             id="path281" />
        </g>
      </g>
    </g>
  </g>
</svg>
